<svg xmlns="http://www.w3.org/2000/svg" viewBox="0 0 1600 730"><rect width="1600" height="730" fill="#e8e1d5"/><g fill="none" stroke="#221f1b" stroke-width="2" opacity=".72"><path d="M0 550 C180 470 240 600 410 500 S700 540 860 455 1130 555 1330 470 1490 490 1600 430"/><path d="M0 580 C180 500 260 630 420 530 S680 565 850 485 1110 585 1320 500 1480 520 1600 455"/><path d="M0 610 C180 530 270 660 430 560 S690 600 860 515 1120 615 1330 530 1490 550 1600 485"/></g><g fill="#221f1b" opacity=".85"><rect x="150" y="330" width="130" height="240"/><polygon points="145,330 215,245 285,330"/><rect x="185" y="430" width="28" height="140" fill="#e8e1d5"/><rect x="320" y="390" width="190" height="180"/><polygon points="310,390 415,300 520,390"/><rect x="382" y="455" width="45" height="115" fill="#e8e1d5"/><rect x="570" y="355" width="155" height="215"/><polygon points="562,355 647,270 732,355"/><rect x="627" y="440" width="34" height="130" fill="#e8e1d5"/><rect x="795" y="410" width="220" height="160"/><polygon points="783,410 905,315 1027,410"/><rect x="880" y="460" width="52" height="110" fill="#e8e1d5"/><rect x="1080" y="350" width="180" height="220"/><polygon points="1070,350 1170,255 1270,350"/><rect x="1140" y="440" width="42" height="130" fill="#e8e1d5"/><rect x="1305" y="390" width="145" height="180"/><polygon points="1295,390 1377,305 1458,390"/><rect x="1360" y="445" width="35" height="125" fill="#e8e1d5"/></g><g stroke="#221f1b" stroke-width="1" opacity=".28">${Array.from({length:90},(_,i)=>`<path d="M${i*18} 40 L${i*18+260} 690"/>`).join('')}</g><text x="800" y="155" text-anchor="middle" font-family="Georgia,serif" font-size="86" letter-spacing="10" fill="#221f1b">RESEARCH</text><text x="800" y="230" text-anchor="middle" font-family="Georgia,serif" font-size="29" letter-spacing="7" fill="#8e1e16">MEMORY · LANGUAGE · TRADITION</text></svg>
